<mxfile host="app.diagrams.net" agent="Mozilla/5.0 (Macintosh; Intel Mac OS X 10_15_7) AppleWebKit/537.36 (KHTML, like Gecko) Chrome/131.0.0.0 Safari/537.36" version="26.0.6">
  <diagram name="Pagina-1" id="fkNTr4zZVnyzrL7YGNCB">
    <mxGraphModel dx="1876" dy="557" grid="1" gridSize="10" guides="1" tooltips="1" connect="1" arrows="1" fold="1" page="1" pageScale="1" pageWidth="827" pageHeight="1169" math="0" shadow="0">
      <root>
        <mxCell id="0" />
        <mxCell id="1" parent="0" />
        <mxCell id="Ch1V3zo2kHtY_A4I4xdM-1" value="" style="triangle;whiteSpace=wrap;html=1;rotation=-90;fillColor=#FFCCE6;strokeColor=#000000;" parent="1" vertex="1">
          <mxGeometry x="409" y="280" width="60" height="50" as="geometry" />
        </mxCell>
        <mxCell id="Ch1V3zo2kHtY_A4I4xdM-3" value="" style="triangle;whiteSpace=wrap;html=1;rotation=90;gradientColor=none;fillColor=#000000;strokeColor=#FFFF33;" parent="1" vertex="1">
          <mxGeometry x="448" y="300" width="60" height="80" as="geometry" />
        </mxCell>
        <mxCell id="Ch1V3zo2kHtY_A4I4xdM-9" value="" style="triangle;whiteSpace=wrap;html=1;rotation=-90;fillColor=#f8cecc;strokeColor=#b85450;" parent="1" vertex="1">
          <mxGeometry x="448" y="290" width="34" height="30" as="geometry" />
        </mxCell>
        <mxCell id="Ch1V3zo2kHtY_A4I4xdM-10" value="" style="triangle;whiteSpace=wrap;html=1;rotation=90;fillColor=#ffe6cc;strokeColor=#d79b00;" parent="1" vertex="1">
          <mxGeometry x="421" y="339" width="52" height="40" as="geometry" />
        </mxCell>
        <mxCell id="szvc-eSpUS3lIqZOgvwH-1" value="" style="whiteSpace=wrap;html=1;aspect=fixed;strokeWidth=5;" vertex="1" parent="1">
          <mxGeometry y="220" width="80" height="80" as="geometry" />
        </mxCell>
        <mxCell id="szvc-eSpUS3lIqZOgvwH-2" value="" style="whiteSpace=wrap;html=1;aspect=fixed;strokeWidth=5;" vertex="1" parent="1">
          <mxGeometry x="10" y="230" width="50" height="50" as="geometry" />
        </mxCell>
        <mxCell id="szvc-eSpUS3lIqZOgvwH-3" value="" style="whiteSpace=wrap;html=1;aspect=fixed;strokeWidth=5;" vertex="1" parent="1">
          <mxGeometry x="20" y="240" width="20" height="20" as="geometry" />
        </mxCell>
      </root>
    </mxGraphModel>
  </diagram>
</mxfile>
